<svg xmlns="http://www.w3.org/2000/svg" viewBox="0 0 1500 727">
  <svg viewBox="2.15 -36.25 163.69 46.75" data-palette-color="#2979ff" transform="translate(55.768 26.069)">
    <path d="M18.15-35q6.6 0 10.85 2.67 4.25 2.68 4.35 7.93v.6H23v-.2q0-1.5-1.1-2.5t-3.35-1q-2.2 0-3.37.65-1.18.65-1.18 1.6 0 1.35 1.6 2 1.6.65 5.15 1.35 4.15.85 6.83 1.77 2.67.93 4.67 3.03 2 2.1 2.05 5.7 0 6.1-4.12 9.05Q26.05.6 19.15.6 11.1.6 6.63-2.1q-4.48-2.7-4.48-9.55H12.6q0 2.6 1.35 3.47 1.35.88 4.2.88 2.1 0 3.48-.45Q23-8.2 23-9.6q0-1.25-1.52-1.88-1.53-.62-4.98-1.32-4.2-.9-6.95-1.88-2.75-.97-4.8-3.22T2.7-24q0-5.65 4.38-8.33Q11.45-35 18.15-35Zm30.9 11.35q1.6-1.6 3.75-2.48 2.15-.87 4.5-.87 4.6 0 6.9 2.55 2.3 2.55 2.3 7.35V0h-9.95v-15.9q0-1.7-.88-2.73-.87-1.02-2.47-1.02-1.85 0-3 1.2t-1.15 2.95V0H39.1v-36.25h9.95v12.6ZM86.1-27q6.95 0 10.92 3.52Q101-19.95 101-13.2T97.02-2.93Q93.05.6 86.1.6q-6.95 0-10.9-3.5t-3.95-10.3q0-6.8 3.95-10.3Q79.15-27 86.1-27Zm0 6.75q-4.9 0-4.9 5.65v2.85q0 5.6 4.9 5.6 4.95 0 4.95-5.6v-2.85q0-5.65-4.95-5.65ZM123.19-27q5.35 0 8.25 3.5 2.9 3.5 2.9 10.35 0 6.8-2.9 10.27Q128.54.6 123.19.6q-4.6 0-7.4-3V9.85h-9.95V-26.4h8.1l.85 3.75q2.9-4.35 8.4-4.35Zm-3.1 7.35q-2.2 0-3.3 1.55-1.1 1.55-1.1 4.05v1.65q0 2.5 1.1 4.07 1.1 1.58 3.3 1.58 4.3 0 4.3-5.15v-2.65q0-5.1-4.3-5.1ZM156.44-.8q-2.05 5.55-5.02 8.43-2.98 2.87-8.33 2.87-3.25 0-5.75-.9V3.65h4q3.75 0 4.45-3.65l-10.5-26.4h10.7l5.05 17.55h.35l4.65-17.55h9.8l-9.4 25.6Z" fill="#2979ff" class="wordmark-text-0" data-fill-palette-color="quaternary"/>
  </svg>
</svg>