<svg xmlns="http://www.w3.org/2000/svg" version="1.1" xmlns:xlink="http://www.w3.org/1999/xlink" xmlns:svgjs="http://svgjs.dev/svgjs" width="1500" height="1500" viewBox="0 0 1500 1500"><rect width="1500" height="1500" fill="#2979ff"></rect><g transform="matrix(0.6666666666666666,0,0,0.6666666666666666,249.39436519522388,508.27292097096444)"><svg viewBox="0 0 396 192" data-background-color="#2979ff" preserveAspectRatio="xMidYMid meet" height="727" width="1500" xmlns="http://www.w3.org/2000/svg" xmlns:xlink="http://www.w3.org/1999/xlink"><g id="tight-bounds" transform="matrix(1,0,0,1,0.24008861730862918,-0.24016676703951134)"><svg viewBox="0 0 395.52 192.48033353407902" height="192.48033353407902" width="395.52"><g><svg viewBox="0 0 395.52 192.48033353407902" height="192.48033353407902" width="395.52"><g><svg viewBox="0 0 395.52 192.48033353407902" height="192.48033353407902" width="395.52"><g id="textblocktransform"><svg viewBox="0 0 395.52 192.48033353407902" height="192.48033353407902" width="395.52" id="textblock"><g><svg viewBox="0 0 395.52 133.2380513098269" height="133.2380513098269" width="395.52"><path d="M394.594 28.577C392.735 14.747 387.435 10.902 387.435 10.902 371.165-3.343 350.86-0.272 332.619 1.774 300.414 1.857 268.339 4.9 236.208 6.532 168.767 6.781 100.749 2.687 33.643 12.783 27.339 15.881-6.54 13.392 1.121 30.347 3.129 37.401 10.456 45.228 10.232 51.701 11.236 52.835 12.631 50.235 13.226 51.867 15.309 56.265 18.711 54.19 21.501 56.79 17.614 63.733 20.403 69.514 23.062 75.572 18.377 77.148 12.371 76.401 9.675 81.629 9.396 85.419 7.89 84.699 6.235 84.533 5.026 84.423 2.59 84.838 2.999 86.027 4.394 90.093-1.594 92.444 2.162 96.427-0.422 100.742 3.948 104.476 3.353 109.151 3.278 110.091 3.687 110.894 4.338 111.115 7.22 112.304 3.018 114.628 3.464 117.145 33.029 134.349 65.104 122.455 95.394 130.366 103.259 124.834 97.346 132.33 100.489 131.168 102.943 129.813 104.728 135.428 107.499 132.247 107.927 131.334 107.276 129.177 108.8 129.592 109.6 129.813 110.307 129.758 110.418 128.485 110.586 126.577 109.117 127.766 108.726 126.77 112.947 121.736 111.906 133.713 115.866 133.215 115.68 131.749 114.528 129.647 116.889 129.924 119.232 127.822 119.306 126.079 121.389 130.809 121.463 131.832 121.835 132.551 122.43 133.049 128.938 127.905 135.409 134.875 142.233 132.551 146.417 130.007 150.433 133.934 154.672 132.966 156.16 132.192 157.666 130.809 159.098 133.132 176.632 133.63 195.319 131.556 211.943 133.215 256.364 130.117 303.836 134.488 350.674 130.394 361.719 128.817 373.192 126.577 383.958 124.779 383.958 124.779 392.679 119.855 392.679 97.727S394.538 78.365 394.817 60.746C395.096 43.126 396.398 42.407 394.538 28.577Z" opacity="1" fill="#ffffff" data-fill-palette-color="tertiary"></path><g transform="matrix(1,0,0,1,55.76832,26.068561146666667)"><svg width="283.98335999999995" viewBox="2.15 -36.25 163.69 46.75" height="81.10092901649355" data-palette-color="#2979ff"><path d="M18.15-35Q24.75-35 29-32.33 33.25-29.65 33.35-24.4L33.35-24.4 33.35-23.8 23-23.8 23-24Q23-25.5 21.9-26.5 20.8-27.5 18.55-27.5L18.55-27.5Q16.35-27.5 15.18-26.85 14-26.2 14-25.25L14-25.25Q14-23.9 15.6-23.25 17.2-22.6 20.75-21.9L20.75-21.9Q24.9-21.05 27.58-20.13 30.25-19.2 32.25-17.1 34.25-15 34.3-11.4L34.3-11.4Q34.3-5.3 30.18-2.35 26.05 0.6 19.15 0.6L19.15 0.6Q11.1 0.6 6.63-2.1 2.15-4.8 2.15-11.65L2.15-11.65 12.6-11.65Q12.6-9.05 13.95-8.18 15.3-7.3 18.15-7.3L18.15-7.3Q20.25-7.3 21.63-7.75 23-8.2 23-9.6L23-9.6Q23-10.85 21.48-11.48 19.95-12.1 16.5-12.8L16.5-12.8Q12.3-13.7 9.55-14.68 6.8-15.65 4.75-17.9 2.7-20.15 2.7-24L2.7-24Q2.7-29.65 7.08-32.33 11.45-35 18.15-35L18.15-35ZM49.05-23.65Q50.65-25.25 52.8-26.13 54.95-27 57.3-27L57.3-27Q61.9-27 64.2-24.45 66.5-21.9 66.5-17.1L66.5-17.1 66.5 0 56.55 0 56.55-15.9Q56.55-17.6 55.67-18.63 54.8-19.65 53.2-19.65L53.2-19.65Q51.35-19.65 50.2-18.45 49.05-17.25 49.05-15.5L49.05-15.5 49.05 0 39.1 0 39.1-36.25 49.05-36.25 49.05-23.65ZM86.1-27Q93.05-27 97.02-23.48 101-19.95 101-13.2L101-13.2Q101-6.45 97.02-2.93 93.05 0.6 86.1 0.6L86.1 0.6Q79.15 0.6 75.2-2.9 71.25-6.4 71.25-13.2L71.25-13.2Q71.25-20 75.2-23.5 79.15-27 86.1-27L86.1-27ZM86.1-20.25Q81.2-20.25 81.2-14.6L81.2-14.6 81.2-11.75Q81.2-6.15 86.1-6.15L86.1-6.15Q91.05-6.15 91.05-11.75L91.05-11.75 91.05-14.6Q91.05-20.25 86.1-20.25L86.1-20.25ZM123.19-27Q128.54-27 131.44-23.5 134.34-20 134.34-13.15L134.34-13.15Q134.34-6.35 131.44-2.88 128.54 0.6 123.19 0.6L123.19 0.6Q118.59 0.6 115.79-2.4L115.79-2.4 115.79 9.85 105.84 9.85 105.84-26.4 113.94-26.4 114.79-22.65Q117.69-27 123.19-27L123.19-27ZM120.09-19.65Q117.89-19.65 116.79-18.1 115.69-16.55 115.69-14.05L115.69-14.05 115.69-12.4Q115.69-9.9 116.79-8.33 117.89-6.75 120.09-6.75L120.09-6.75Q124.39-6.75 124.39-11.9L124.39-11.9 124.39-14.55Q124.39-19.65 120.09-19.65L120.09-19.65ZM156.44-0.8Q154.39 4.75 151.42 7.63 148.44 10.5 143.09 10.5L143.09 10.5Q139.84 10.5 137.34 9.6L137.34 9.6 137.34 3.65 141.34 3.65Q145.09 3.65 145.79 0L145.79 0 135.29-26.4 145.99-26.4 151.04-8.85 151.39-8.85 156.04-26.4 165.84-26.4 156.44-0.8Z" opacity="1" transform="matrix(1,0,0,1,0,0)" fill="#2979ff" class="wordmark-text-0" data-fill-palette-color="quaternary" id="text-0"></path></svg></g></svg></g><g transform="matrix(1,0,0,1,127.40548263904859,152.38403422832462)"><svg viewBox="0 0 140.7090347219028 40.096299305754414" height="40.096299305754414" width="140.7090347219028"><g transform="matrix(1,0,0,1,0,0)"><svg width="140.7090347219028" viewBox="4.91 -37.99 175.45000000000002 50" height="40.096299305754414" data-palette-color="#ffffff"><path d="M24.8-3.71L24.8 0 4.91 0 4.91-35.69 24.8-35.69 24.8-32.01 9.06-32.01 9.06-20.51 23.85-20.51 23.85-16.85 9.06-16.85 9.06-3.71 24.8-3.71ZM49.22-3.15L49.22 0 29.81 0 29.81-2.76 44.41-23.61 30.71-23.61 30.71-26.76 48.85-26.76 48.85-23.61 34.45-3.15 49.22-3.15ZM89.23-9.5L89.23-9.5Q89.23-4.79 85.81-2.15 82.39 0.49 76.53 0.49L76.53 0.49Q70.18 0.49 66.76-1.15L66.76-1.15 66.76-5.15Q68.96-4.22 71.55-3.69 74.14-3.15 76.68-3.15L76.68-3.15Q80.83-3.15 82.93-4.72 85.03-6.3 85.03-9.11L85.03-9.11Q85.03-10.96 84.28-12.15 83.54-13.33 81.79-14.33 80.05-15.33 76.48-16.6L76.48-16.6Q71.5-18.38 69.37-20.83 67.23-23.27 67.23-27.2L67.23-27.2Q67.23-31.32 70.33-33.76 73.43-36.21 78.53-36.21L78.53-36.21Q83.85-36.21 88.32-34.25L88.32-34.25 87.03-30.64Q82.61-32.5 78.43-32.5L78.43-32.5Q75.14-32.5 73.28-31.08 71.43-29.66 71.43-27.15L71.43-27.15Q71.43-25.29 72.11-24.11 72.8-22.92 74.42-21.94 76.04-20.95 79.39-19.75L79.39-19.75Q85-17.75 87.11-15.45 89.23-13.16 89.23-9.5ZM118.28 0L114.22 0 114.22-17.31Q114.22-20.58 112.73-22.19 111.24-23.8 108.07-23.8L108.07-23.8Q103.85-23.8 101.91-21.51 99.97-19.21 99.97-13.99L99.97-13.99 99.97 0 95.91 0 95.91-37.99 99.97-37.99 99.97-26.49Q99.97-24.41 99.77-23.05L99.77-23.05 100.01-23.05Q101.21-24.98 103.42-26.09 105.63-27.2 108.46-27.2L108.46-27.2Q113.37-27.2 115.82-24.87 118.28-22.53 118.28-17.46L118.28-17.46 118.28 0ZM149.69-13.4L149.69-13.4Q149.69-6.86 146.4-3.19 143.1 0.49 137.29 0.49L137.29 0.49Q133.7 0.49 130.92-1.2 128.14-2.88 126.62-6.03 125.11-9.18 125.11-13.4L125.11-13.4Q125.11-19.95 128.38-23.6 131.65-27.25 137.46-27.25L137.46-27.25Q143.08-27.25 146.39-23.51 149.69-19.78 149.69-13.4ZM129.31-13.4L129.31-13.4Q129.31-8.28 131.36-5.59 133.41-2.91 137.39-2.91L137.39-2.91Q141.37-2.91 143.43-5.58 145.5-8.25 145.5-13.4L145.5-13.4Q145.5-18.51 143.43-21.15 141.37-23.8 137.34-23.8L137.34-23.8Q133.36-23.8 131.34-21.19 129.31-18.58 129.31-13.4ZM169.25 0.49L169.25 0.49Q166.64 0.49 164.47-0.48 162.31-1.44 160.85-3.44L160.85-3.44 160.56-3.44Q160.85-1.1 160.85 1L160.85 1 160.85 12.01 156.8 12.01 156.8-26.76 160.09-26.76 160.65-23.1 160.85-23.1Q162.41-25.29 164.49-26.27 166.56-27.25 169.25-27.25L169.25-27.25Q174.57-27.25 177.46-23.61 180.36-19.97 180.36-13.4L180.36-13.4Q180.36-6.81 177.41-3.16 174.47 0.49 169.25 0.49ZM168.66-23.8L168.66-23.8Q164.56-23.8 162.73-21.53 160.9-19.26 160.85-14.31L160.85-14.31 160.85-13.4Q160.85-7.76 162.73-5.33 164.61-2.91 168.76-2.91L168.76-2.91Q172.23-2.91 174.19-5.71 176.16-8.52 176.16-13.45L176.16-13.45Q176.16-18.46 174.19-21.13 172.23-23.8 168.66-23.8Z" opacity="1" transform="matrix(1,0,0,1,0,0)" fill="#ffffff" class="slogan-text-1" data-fill-palette-color="secondary" id="text-1"></path></svg></g></svg></g></svg></g></svg></g><g></g></svg></g><defs></defs></svg><rect width="395.52" height="192.48033353407902" fill="none" stroke="none" visibility="hidden"></rect></g></svg></g></svg>